<?xml version="1.0" standalone="no"?><!DOCTYPE svg PUBLIC "-//W3C//DTD SVG 1.1//EN" "http://www.w3.org/Graphics/SVG/1.1/DTD/svg11.dtd"><svg t="1681108301808" class="icon" viewBox="0 0 1024 1024" version="1.1" xmlns="http://www.w3.org/2000/svg" p-id="1919" xmlns:xlink="http://www.w3.org/1999/xlink" width="200" height="200"><path d="M794.3 126.4H230.4v816.1h712.3V274.8z" fill="#F2F2F2" p-id="1920"></path><path d="M347.7 126.4H230.4v816.1h643.8z" fill="#E5E5E5" p-id="1921"></path><path d="M440 586.4H109.8c-15.4 0-27.8-12.5-27.8-27.8V109.7c0-15.4 12.5-27.8 27.8-27.8H440c15.4 0 27.8 12.5 27.8 27.8v448.9c0 15.3-12.5 27.8-27.8 27.8z" fill="#808080" p-id="1922"></path><path d="M437.2 126.4c0-7.7-6.2-13.9-13.9-13.9H126.5c-7.7 0-13.9 6.2-13.9 13.9v74.2c0 7.7 6.2 13.9 13.9 13.9h296.8c7.7 0 13.9-6.2 13.9-13.9v-74.2z" fill="" p-id="1923"></path><path d="M942.7 778.4c7.7 0 13.9-6.2 13.9-13.9V274.8c0-3.7-1.5-7.2-4.1-9.8L804.1 116.5c-2.6-2.6-6.1-4.1-9.8-4.1H481.7v-2.8c0-23-18.7-41.7-41.7-41.7H109.8c-23 0-41.7 18.7-41.7 41.7v448.9c0 23 18.7 41.7 41.7 41.7h106.7v342.2c0 7.7 6.2 13.9 13.9 13.9h712.3c7.7 0 13.9-6.2 13.9-13.9V838.7c0-7.7-6.2-13.9-13.9-13.9s-13.9 6.2-13.9 13.9v90H244.3V600.3H440c23 0 41.7-18.7 41.7-41.7V319.3c0-7.7-6.2-13.9-13.9-13.9s-13.9 6.2-13.9 13.9v239.3c0 7.7-6.2 13.9-13.9 13.9H109.8c-7.7 0-13.9-6.2-13.9-13.9V109.7c0-7.7 6.2-13.9 13.9-13.9H440c7.7 0 13.9 6.2 13.9 13.9v135.4c0 7.7 6.2 13.9 13.9 13.9s13.9-6.2 13.9-13.9V140.3h298.7v134.5c0 7.7 6.2 13.9 13.9 13.9h134.5v475.8c-0.1 7.7 6.2 13.9 13.9 13.9z" fill="" p-id="1924"></path><path d="M651.8 217.9c-1.9-1.9-4.4-3.3-7.1-3.8l-51.6-10.3-24.8-27.4c-5.2-5.7-14-6.1-19.7-1-5.7 5.2-6.1 14-1 19.7 0 0 28.6 31.3 29.6 31.9l9.1 45.4c0.5 2.7 1.9 5.2 3.8 7.1l221.7 221.7c8.1 8.1 18.8 12.2 29.5 12.2s21.4-4.1 29.5-12.2l2.6-2.6c16.3-16.3 16.3-42.8 0-59l-2-2L893 416c5.5-5.5 5.3-14.6-0.3-19.9l-75.8-72c-5.6-5.3-14.4-5.1-19.7 0.5-5.3 5.6-5.1 14.4 0.5 19.7l65.4 62.1-11.5 11.5-199.8-200z" fill="" p-id="1925"></path><path d="M690.4 705.1m-192.9 0a192.9 192.9 0 1 0 385.8 0 192.9 192.9 0 1 0-385.8 0Z" fill="#F7D04A" p-id="1926"></path><path d="M742.3 846.1c-106.5 0-192.9-86.4-192.9-192.9 0-40 12.2-77.2 33-108-51.3 34.7-85 93.4-85 159.9 0 106.5 86.4 192.9 192.9 192.9 66.5 0 125.2-33.7 159.9-85-30.7 20.9-67.9 33.1-107.9 33.1z" fill="#F3B41B" p-id="1927"></path><path d="M525.6 603.7c-6.8-3.5-15.2-0.9-18.8 5.9-15.2 29.3-23.3 62.3-23.3 95.5 0 114 92.8 206.8 206.8 206.8 114 0 206.8-92.8 206.8-206.8 0-114-92.8-206.8-206.8-206.8-56.9 0-109.9 22.6-149.2 63.6-5.3 5.5-5.1 14.3 0.4 19.7 5.5 5.3 14.4 5.1 19.7-0.4 34.1-35.5 80-55.1 129.2-55.1 98.7 0 179 80.3 179 179s-80.3 179-179 179-179-80.3-179-179c0-29.2 6.8-56.9 20.2-82.6 3.5-6.8 0.8-15.2-6-18.8z" fill="" p-id="1928"></path><path d="M325.3 140.3l-46.4 46.3h130.5v-46.3zM140.4 140.3v46.3h82.8l46.4-46.3z" fill="#62C9CC" p-id="1929"></path><path d="M269.6 140.3l-46.4 46.3h55.7l46.4-46.3z" fill="#F2F2F2" p-id="1930"></path><path d="M649.368 254.782L769.15 374.565l-22.273 22.274-119.783-119.783z" fill="#62C9CC" p-id="1931"></path><path d="M635.1 240.5l-27.9-5.6 5.6 27.9 14.3 14.3 22.3-22.3z" fill="#F7D04A" p-id="1932"></path><path d="M318.5 245.1c0-7.7-6.2-13.9-13.9-13.9h-59.4c-7.7 0-13.9 6.2-13.9 13.9v59.4c0 7.7 6.2 13.9 13.9 13.9h59.4c7.7 0 13.9-6.2 13.9-13.9v-59.4z" fill="" p-id="1933"></path><path d="M437.2 245.1c0-7.7-6.2-13.9-13.9-13.9h-59.4c-7.7 0-13.9 6.2-13.9 13.9v59.4c0 7.7 6.2 13.9 13.9 13.9h59.4c7.7 0 13.9-6.2 13.9-13.9v-59.4zM199.8 245.1c0-7.7-6.2-13.9-13.9-13.9h-59.4c-7.7 0-13.9 6.2-13.9 13.9v59.4c0 7.7 6.2 13.9 13.9 13.9h59.4c7.7 0 13.9-6.2 13.9-13.9v-59.4zM199.8 363.8c0-7.7-6.2-13.9-13.9-13.9h-59.4c-7.7 0-13.9 6.2-13.9 13.9v59.4c0 7.7 6.2 13.9 13.9 13.9h59.4c7.7 0 13.9-6.2 13.9-13.9v-59.4z" fill="" p-id="1934"></path><path d="M808.2 159.9l100.9 100.9H808.2z" fill="#E5E5E5" p-id="1935"></path><path d="M318.5 363.8c0-7.7-6.2-13.9-13.9-13.9h-59.4c-7.7 0-13.9 6.2-13.9 13.9v59.4c0 7.7 6.2 13.9 13.9 13.9h59.4c7.7 0 13.9-6.2 13.9-13.9v-59.4zM631 795.1c-7.7 0-13.9 6.2-13.9 13.9s6.2 13.9 13.9 13.9h41.7v15.8c0 7.7 6.2 13.9 13.9 13.9s13.9-6.2 13.9-13.9v-15.8h21.3c23 0 41.7-18.7 41.7-41.7v-46.4c0-22.9-18.6-41.6-41.5-41.7l-21.6-0.6v-77.3h49.2c7.7 0 13.9-6.2 13.9-13.9s-6.2-13.9-13.9-13.9h-49.2v-15.8c0-7.7-6.2-13.9-13.9-13.9s-13.9 6.2-13.9 13.9v15.8h-13.9c-23 0-41.7 18.7-41.7 41.7v48.2c0 22.9 18.6 41.6 41.5 41.7l14.1 0.4V795l-41.6 0.1zM185.8 468.6h-59.4c-7.7 0-13.9 6.2-13.9 13.9v59.4c0 7.7 6.2 13.9 13.9 13.9h59.4c7.7 0 13.9-6.2 13.9-13.9v-59.4c0.1-7.7-6.2-13.9-13.9-13.9zM412.1 706h-92.7c-7.7 0-13.9 6.2-13.9 13.9s6.2 13.9 13.9 13.9h92.7c7.7 0 13.9-6.2 13.9-13.9 0.1-7.6-6.2-13.9-13.9-13.9zM304.6 468.6h-59.4c-7.7 0-13.9 6.2-13.9 13.9v59.4c0 7.7 6.2 13.9 13.9 13.9h59.4c7.7 0 13.9-6.2 13.9-13.9v-59.4c0-7.7-6.3-13.9-13.9-13.9zM412.1 780.2h-92.7c-7.7 0-13.9 6.2-13.9 13.9s6.2 13.9 13.9 13.9h92.7c7.7 0 13.9-6.2 13.9-13.9 0.1-7.6-6.2-13.9-13.9-13.9zM423.3 349.9h-59.4c-7.7 0-13.9 6.2-13.9 13.9v178.1c0 7.7 6.2 13.9 13.9 13.9h59.4c7.7 0 13.9-6.2 13.9-13.9V363.8c0-7.7-6.2-13.9-13.9-13.9z" fill="" p-id="1936"></path><path d="M700.6 720.3l20.9 0.6h0.4c7.7 0 13.9 6.2 13.9 13.9v46.4c0 7.7-6.2 13.9-13.9 13.9h-21.3v-74.8zM659.3 691.2h-0.4c-7.7 0-13.9-6.2-13.9-13.9v-48.2c0-7.7 6.2-13.9 13.9-13.9h13.9v76.5l-13.5-0.5z" fill="#F7D04A" p-id="1937"></path><path d="M140.4 259h31.5v31.5h-31.5zM259.1 259h31.5v31.5h-31.5zM377.8 259h31.5v31.5h-31.5zM140.4 377.7h31.5v31.5h-31.5zM259.1 377.7h31.5v31.5h-31.5zM140.4 496.4h31.5v31.5h-31.5zM259.1 496.4h31.5v31.5h-31.5z" fill="#EF9D3C" p-id="1938"></path><path d="M377.8 377.7h31.5V528h-31.5z" fill="#F7D04A" p-id="1939"></path><path d="M853.8 478.9l-2.6 2.6c-5.4 5.4-14.3 5.4-19.7 0l-64.9-64.9 22.3-22.3 64.9 64.9c5.4 5.4 5.4 14.2 0 19.7z" fill="#62C9CC" p-id="1940"></path></svg>